# xmcd CD database file
#
# Track frame offsets:
#	180
#	19524
#	43742
#	70527
#	96311
#	110478
#	131271
#	144686
#	165911
#	190448
#
# Disc length: 2859 seconds
#
# Revision: 0
# Processed by: cddbd v1.5PL3 Copyright (c) Steve Scherf et al.
# Submitted via: CDex 1.51
#
DISCID=810b290a
DTITLE=Snake Davis - Second Skin
DYEAR=1994
DGENRE=Jazz
TTITLE0=Sugar Ray
TTITLE1=Lowdown
TTITLE2=Second Skin
TTITLE3=Sweet Thing
TTITLE4=What's Up With You '94
TTITLE5=Save Your Soul
TTITLE6=Still Crazy After All These Years
TTITLE7=I've Been Missing You
TTITLE8=New Soul Wiggle
TTITLE9=While We're Waiting
EXTD=YEAR: 1994
EXTT0=
EXTT1=
EXTT2=
EXTT3=
EXTT4=
EXTT5=
EXTT6=
EXTT7=
EXTT8=
EXTT9=
PLAYORDER=
